<svg width="1656" height="589" viewBox="0 0 1656 589" fill="none" xmlns="http://www.w3.org/2000/svg">
<g clip-path="url(#clip0_106_43)">
<path d="M122.038 445.081L372.597 144.155L403.521 12.487L279.634 66.75L29.0725 367.675L122.038 445.081ZM196.331 318.042L177.738 302.561L325.844 124.684L344.437 140.165L196.331 318.042ZM351.181 61.8244L364.48 72.8982L354.172 116.788L309.885 79.9123L351.181 61.8244ZM288.659 93.722L307.252 109.203L159.145 287.08L140.552 271.599L288.659 93.722ZM125.071 290.191L180.851 336.634L165.37 355.227L109.59 308.784L125.071 290.191ZM149.889 373.821L118.927 411.008L63.1465 364.563L94.1093 327.377L149.889 373.821Z" fill="#2D9CDB"/>
</g>
<path d="M430.287 304.35C426.154 302.884 421.545 304.176 418.778 307.577L319.826 429.226C317.303 432.328 316.789 436.606 318.506 440.217C320.224 443.827 323.866 446.128 327.865 446.128H426.817C432.54 446.128 437.18 441.489 437.18 435.764V314.115C437.18 309.731 434.42 305.82 430.287 304.35ZM416.454 425.402H349.652L416.454 343.279V425.402Z" fill="#2D9CDB"/>
<path d="M533.283 36.2225C529.151 34.7564 524.54 36.047 521.772 39.449L117.878 536.002C115.355 539.104 114.842 543.382 116.56 546.993C118.277 550.604 121.92 552.904 125.919 552.904H529.813C535.538 552.904 540.177 548.266 540.177 542.541V45.989C540.175 41.6032 537.414 37.6927 533.283 36.2225ZM147.707 532.177L519.448 75.1532V138.131H495.253C489.53 138.131 484.89 142.77 484.89 148.495C484.89 154.219 489.53 158.858 495.253 158.858H519.448V186.721L495.253 186.723C489.528 186.723 484.89 191.363 484.89 197.088C484.891 202.812 489.531 207.45 495.254 207.45L519.448 207.448V235.313H495.256C489.531 235.313 484.892 239.951 484.892 245.676C484.892 251.401 489.531 256.04 495.256 256.04H519.448V283.902H495.256C489.531 283.902 484.892 288.541 484.892 294.266C484.892 299.99 489.531 304.629 495.256 304.629H519.448V332.492H495.256C489.531 332.492 484.892 337.13 484.892 342.855C484.892 348.58 489.531 353.219 495.256 353.219H519.448V381.081H495.253C489.53 381.081 484.89 385.72 484.89 391.444C484.89 397.169 489.53 401.808 495.253 401.808H519.448V429.67H495.256C489.531 429.67 484.892 434.309 484.892 440.034C484.892 445.759 489.531 450.397 495.256 450.397H519.448V478.263H495.253C489.53 478.263 484.89 482.901 484.89 488.626C484.89 494.351 489.53 498.99 495.253 498.99H519.448V532.177H147.707Z" fill="#2D9CDB"/>
<path d="M735.96 284.136L734.68 247.912C731.779 251.069 728.323 253.629 724.312 255.592C720.301 257.555 715.352 258.536 709.464 258.536C704.088 258.536 699.608 257.256 696.024 254.696C692.44 252.136 689.752 248.68 687.96 244.328C686.253 239.976 685.4 235.112 685.4 229.736C685.4 219.069 689.155 209.853 696.664 202.088C704.173 194.237 716.12 188.691 732.504 185.448L731.608 157.16H754.008L752.856 195.816C755.843 192.744 759.384 190.013 763.48 187.624C767.576 185.235 771.928 184.04 776.536 184.04C781.997 184.04 786.477 185.32 789.976 187.88C793.56 190.355 796.205 193.768 797.912 198.12C799.704 202.387 800.6 207.251 800.6 212.712C800.6 220.904 798.637 228.157 794.712 234.472C790.872 240.787 785.24 245.949 777.816 249.96C770.477 253.885 761.517 256.488 750.936 257.768L750.168 284.136H735.96ZM732.76 191.464C725.677 194.707 720.045 198.376 715.864 202.472C711.768 206.483 708.867 210.749 707.16 215.272C705.453 219.709 704.6 224.189 704.6 228.712C704.6 233.917 705.581 238.013 707.544 241C709.507 243.901 712.365 245.352 716.12 245.352C719.704 245.352 722.861 245.011 725.592 244.328C728.323 243.645 731.267 242.323 734.424 240.36L732.76 191.464ZM751.192 252.264C757.421 250.045 762.499 247.485 766.424 244.584C770.435 241.597 773.507 238.397 775.64 234.984C777.859 231.571 779.352 228.072 780.12 224.488C780.973 220.819 781.4 217.235 781.4 213.736C781.4 208.445 780.419 204.392 778.456 201.576C776.493 198.76 773.635 197.352 769.88 197.352C766.467 197.352 763.437 197.651 760.792 198.248C758.232 198.76 755.544 199.699 752.728 201.064L751.192 252.264Z" fill="#2D9CDB"/>
<path d="M926.296 221.416C926.296 227.048 925.144 232.168 922.84 236.776C920.536 241.299 917.507 245.181 913.752 248.424C909.997 251.667 905.944 254.184 901.592 255.976C897.24 257.683 893.016 258.536 888.92 258.536C884.824 258.536 880.6 257.683 876.248 255.976C871.896 254.184 867.8 251.667 863.96 248.424C860.205 245.181 857.133 241.299 854.744 236.776C852.44 232.168 851.288 227.048 851.288 221.416C851.288 215.784 852.44 210.664 854.744 206.056C857.133 201.448 860.205 197.523 863.96 194.28C867.8 190.952 871.896 188.435 876.248 186.728C880.6 184.936 884.824 184.04 888.92 184.04C893.016 184.04 897.24 184.936 901.592 186.728C905.944 188.435 909.997 190.952 913.752 194.28C917.507 197.523 920.536 201.448 922.84 206.056C925.144 210.664 926.296 215.784 926.296 221.416ZM892.76 249.32C897.283 249.32 900.739 247.699 903.128 244.456C905.517 241.128 906.712 235.155 906.712 226.536C906.712 218.856 905.517 212.584 903.128 207.72C900.824 202.856 898.008 199.315 894.68 197.096C891.352 194.792 888.152 193.64 885.08 193.64C882.093 193.64 879.533 194.323 877.4 195.688C875.267 197.053 873.645 199.4 872.536 202.728C871.427 205.971 870.872 210.493 870.872 216.296C870.872 221.501 871.555 226.152 872.92 230.248C874.371 234.344 876.205 237.843 878.424 240.744C880.643 243.56 882.989 245.693 885.464 247.144C888.024 248.595 890.456 249.32 892.76 249.32Z" fill="#2D9CDB"/>
<path d="M1006.04 284.136L1001.69 185.704H1024.09L1023.7 195.048C1027.12 192.147 1031.17 189.587 1035.86 187.368C1040.56 185.149 1045.12 184.04 1049.56 184.04C1057.67 184.04 1063.68 186.557 1067.61 191.592C1071.62 196.541 1073.62 203.581 1073.62 212.712C1073.62 221.672 1071.49 229.352 1067.22 235.752C1062.96 242.067 1056.9 247.059 1049.05 250.728C1041.2 254.397 1031.94 256.787 1021.27 257.896L1020.25 284.136H1006.04ZM1021.53 252.264C1029.98 249.363 1036.59 245.907 1041.37 241.896C1046.15 237.885 1049.52 233.491 1051.48 228.712C1053.44 223.933 1054.42 218.941 1054.42 213.736C1054.42 207.933 1053.44 203.752 1051.48 201.192C1049.52 198.632 1046.66 197.352 1042.9 197.352C1039.49 197.352 1036.25 197.608 1033.18 198.12C1030.19 198.632 1026.95 199.571 1023.45 200.936L1021.53 252.264Z" fill="#2D9CDB"/>
<path d="M1202.9 257L1200.6 206.952L1180.63 250.344H1179.99L1161.18 208.232L1149.14 258.536H1147.86L1141.59 185.704H1163.22L1183.96 219.88L1199.06 185.704H1220.06L1216.73 257H1202.9Z" fill="#2D9CDB"/>
<path d="M1303.77 277.096L1321.94 247.528L1290.33 189.544L1312.6 184.04L1328.98 236.008L1360.34 184.552H1362.14L1325.27 286.312L1303.77 277.096Z" fill="#2D9CDB"/>
<path d="M1488.34 257L1485.53 203.496L1460.18 197.48L1457.62 234.472C1457.45 237.459 1456.56 240.403 1454.94 243.304C1453.4 246.12 1450.8 248.893 1447.13 251.624C1443.46 254.355 1438.34 257.085 1431.77 259.816L1431.26 258.792C1435.52 253.416 1438.34 248.936 1439.7 245.352C1441.15 241.683 1441.88 238.355 1441.88 235.368V233.704L1438.55 185.704H1460.95L1460.31 195.944L1507.03 184.424L1504.09 257H1488.34Z" fill="#2D9CDB"/>
<path d="M1655.64 246.76C1651.71 250.429 1648.26 253.331 1645.27 255.464C1642.29 257.597 1639.6 258.664 1637.21 258.664C1635.33 258.664 1633.62 257.939 1632.09 256.488C1630.64 254.952 1629.27 252.52 1627.99 249.192C1625.35 251.496 1622.1 253.459 1618.26 255.08C1614.42 256.616 1610.29 257.64 1605.85 258.152C1604.48 258.323 1603.16 258.451 1601.88 258.536C1600.6 258.621 1599.36 258.664 1598.17 258.664C1586.14 258.664 1580.12 254.355 1580.12 245.736C1580.12 244.712 1580.21 243.645 1580.38 242.536C1580.55 241.427 1580.8 240.232 1581.14 238.952C1581.91 236.136 1583.45 233.619 1585.75 231.4C1588.14 229.096 1591 227.048 1594.33 225.256C1597.66 223.379 1601.07 221.672 1604.57 220.136C1608.07 218.515 1611.31 217.021 1614.3 215.656C1617.37 214.205 1619.84 212.797 1621.72 211.432C1623.68 210.067 1624.66 208.701 1624.66 207.336C1624.66 203.581 1624.19 201.064 1623.26 199.784C1622.32 198.419 1620.53 197.736 1617.88 197.736C1616 197.736 1613.1 197.907 1609.18 198.248C1605.25 198.589 1600.94 199.101 1596.25 199.784C1591.55 200.467 1587.07 201.363 1582.81 202.472L1582.17 201.192C1584.47 198.973 1587.42 196.84 1591 194.792C1594.67 192.744 1598.55 190.909 1602.65 189.288C1606.83 187.667 1610.97 186.387 1615.06 185.448C1619.16 184.509 1622.87 184.04 1626.2 184.04C1631.49 184.04 1635.42 184.595 1637.98 185.704C1640.62 186.728 1642.37 188.819 1643.22 191.976C1644.16 195.048 1644.63 199.699 1644.63 205.928V238.312C1644.63 241.384 1644.89 243.603 1645.4 244.968C1646 246.248 1647.32 246.888 1649.37 246.888C1650.05 246.888 1650.86 246.803 1651.8 246.632C1652.82 246.461 1653.93 246.248 1655.13 245.992L1655.64 246.76ZM1625.69 218.472C1623.81 220.093 1621.29 221.843 1618.14 223.72C1615.06 225.512 1612.08 227.475 1609.18 229.608C1606.27 231.656 1604.14 233.96 1602.78 236.52C1601.58 238.909 1600.98 241 1600.98 242.792C1600.98 244.499 1601.5 245.907 1602.52 247.016C1603.63 248.125 1605.17 248.68 1607.13 248.68C1607.55 248.68 1607.98 248.68 1608.41 248.68C1608.92 248.595 1609.39 248.509 1609.82 248.424C1611.52 247.997 1613.49 247.4 1615.7 246.632C1617.92 245.864 1620.06 244.968 1622.1 243.944C1624.15 242.92 1625.6 241.896 1626.46 240.872L1625.69 218.472Z" fill="#2D9CDB"/>
<path d="M720.088 462.096L738.264 432.528L706.648 374.544L728.92 369.04L745.304 421.008L776.664 369.552H778.456L741.592 471.312L720.088 462.096Z" fill="#2D9CDB"/>
<path d="M844.376 442L841.048 370.704H862.168L860.888 397.968L869.976 403.088C870.488 397.883 871.896 393.189 874.2 389.008C876.589 384.827 879.533 381.243 883.032 378.256C886.531 375.269 890.2 373.008 894.04 371.472C897.965 369.851 901.635 369.04 905.048 369.04C908.717 369.04 912.557 369.936 916.568 371.728C920.664 373.435 924.461 375.952 927.96 379.28C931.544 382.523 934.445 386.448 936.664 391.056C938.883 395.664 939.992 400.784 939.992 406.416C939.992 412.048 938.883 417.168 936.664 421.776C934.445 426.299 931.544 430.181 927.96 433.424C924.461 436.667 920.664 439.184 916.568 440.976C912.557 442.683 908.717 443.536 905.048 443.536C901.464 443.536 897.709 442.725 893.784 441.104C889.859 439.397 886.104 437.008 882.52 433.936C879.021 430.864 876.077 427.152 873.688 422.8C871.384 418.448 870.104 413.584 869.848 408.208L860.12 414.096L858.84 442H844.376ZM908.504 434.32C912.6 434.32 915.715 432.699 917.848 429.456C919.981 426.128 921.048 420.155 921.048 411.536C921.048 403.856 919.981 397.584 917.848 392.72C915.8 387.856 913.24 384.315 910.168 382.096C907.181 379.792 904.323 378.64 901.592 378.64C898.861 378.64 896.515 379.323 894.552 380.688C892.675 382.053 891.224 384.4 890.2 387.728C889.261 390.971 888.792 395.493 888.792 401.296C888.792 408.293 889.859 414.267 891.992 419.216C894.125 424.08 896.728 427.835 899.8 430.48C902.872 433.04 905.773 434.32 908.504 434.32Z" fill="#2D9CDB"/>
<path d="M1026.52 442L1023.58 386.192L1000.66 390.416V369.68L1072.34 375.696V376.976L1045.98 381.968L1042.9 442H1026.52Z" fill="#2D9CDB"/>
<path d="M1217.88 431.76C1213.95 435.429 1210.5 438.331 1207.51 440.464C1204.53 442.598 1201.84 443.664 1199.45 443.664C1197.57 443.664 1195.86 442.939 1194.33 441.488C1192.88 439.952 1191.51 437.52 1190.23 434.192C1187.59 436.496 1184.34 438.459 1180.5 440.08C1176.66 441.616 1172.53 442.64 1168.09 443.152C1166.72 443.323 1165.4 443.451 1164.12 443.536C1162.84 443.621 1161.6 443.664 1160.41 443.664C1148.38 443.664 1142.36 439.355 1142.36 430.736C1142.36 429.712 1142.45 428.645 1142.62 427.536C1142.79 426.427 1143.04 425.232 1143.38 423.952C1144.15 421.136 1145.69 418.619 1147.99 416.4C1150.38 414.096 1153.24 412.048 1156.57 410.256C1159.9 408.379 1163.31 406.672 1166.81 405.136C1170.31 403.515 1173.55 402.021 1176.54 400.656C1179.61 399.205 1182.08 397.797 1183.96 396.432C1185.92 395.067 1186.9 393.701 1186.9 392.336C1186.9 388.581 1186.43 386.064 1185.5 384.784C1184.56 383.419 1182.77 382.736 1180.12 382.736C1178.24 382.736 1175.34 382.907 1171.42 383.248C1167.49 383.589 1163.18 384.101 1158.49 384.784C1153.79 385.467 1149.31 386.363 1145.05 387.472L1144.41 386.192C1146.71 383.973 1149.66 381.84 1153.24 379.792C1156.91 377.744 1160.79 375.909 1164.89 374.288C1169.07 372.667 1173.21 371.387 1177.3 370.448C1181.4 369.509 1185.11 369.04 1188.44 369.04C1193.73 369.04 1197.66 369.595 1200.22 370.704C1202.86 371.728 1204.61 373.819 1205.46 376.976C1206.4 380.048 1206.87 384.699 1206.87 390.928V423.312C1206.87 426.384 1207.13 428.603 1207.64 429.968C1208.24 431.248 1209.56 431.888 1211.61 431.888C1212.29 431.888 1213.1 431.803 1214.04 431.632C1215.06 431.462 1216.17 431.248 1217.37 430.992L1217.88 431.76ZM1187.93 403.472C1186.05 405.093 1183.53 406.843 1180.38 408.72C1177.3 410.512 1174.32 412.475 1171.42 414.608C1168.51 416.656 1166.38 418.96 1165.02 421.52C1163.82 423.91 1163.22 426 1163.22 427.792C1163.22 429.499 1163.74 430.907 1164.76 432.016C1165.87 433.126 1167.41 433.68 1169.37 433.68C1169.79 433.68 1170.22 433.68 1170.65 433.68C1171.16 433.595 1171.63 433.509 1172.06 433.424C1173.76 432.997 1175.73 432.4 1177.94 431.632C1180.16 430.864 1182.3 429.968 1184.34 428.944C1186.39 427.92 1187.84 426.896 1188.7 425.872L1187.93 403.472Z" fill="#2D9CDB"/>
<defs>
<clipPath id="clip0_106_43">
<rect width="405.201" height="405.201" fill="white" transform="translate(440.374 416.008) rotate(174.782)"/>
</clipPath>
</defs>
</svg>
