<svg width="26" height="26" viewBox="0 0 26 26" fill="none" xmlns="http://www.w3.org/2000/svg">
<path d="M12.9875 0.5C6.0875 0.5 0.5 6.1 0.5 13C0.5 19.9 6.0875 25.5 12.9875 25.5C19.9 25.5 25.5 19.9 25.5 13C25.5 6.1 19.9 0.5 12.9875 0.5ZM18 18C17.8844 18.1159 17.747 18.2078 17.5958 18.2705C17.4446 18.3333 17.2825 18.3656 17.1187 18.3656C16.955 18.3656 16.7929 18.3333 16.6417 18.2705C16.4905 18.2078 16.3531 18.1159 16.2375 18L12.125 13.8875C12.0069 13.7717 11.9129 13.6337 11.8486 13.4813C11.7842 13.329 11.7507 13.1654 11.75 13V8C11.75 7.3125 12.3125 6.75 13 6.75C13.6875 6.75 14.25 7.3125 14.25 8V12.4875L18 16.2375C18.4875 16.725 18.4875 17.5125 18 18Z" fill="#e5d8ac"/>
</svg>
