<svg width="25" height="18" viewBox="0 0 22 18" fill="none" xmlns="http://www.w3.org/2000/svg">
<path d="M21.8333 5.32533V14.1458C21.8334 15.0451 21.4893 15.9104 20.8717 16.5641C20.2541 17.2178 19.4097 17.6103 18.5118 17.6612L18.3125 17.6667H3.6875C2.78818 17.6667 1.92293 17.3226 1.26925 16.705C0.615561 16.0874 0.222996 15.243 0.172081 14.3452L0.166664 14.1458V5.32533L10.623 10.8027C10.7393 10.8636 10.8687 10.8954 11 10.8954C11.1313 10.8954 11.2607 10.8636 11.377 10.8027L21.8333 5.32533ZM3.6875 0.333328H18.3125C19.1852 0.333223 20.0269 0.65724 20.6742 1.24253C21.3216 1.82783 21.7285 2.63268 21.816 3.50099L11 9.16683L0.183997 3.50099C0.267981 2.66717 0.646635 1.89064 1.25189 1.311C1.85715 0.731354 2.64932 0.386614 3.486 0.338745L3.6875 0.333328H18.3125H3.6875Z" fill="#e5d8ac"/>
</svg>
